<mxfile host="app.diagrams.net" modified="2023-05-05T09:50:36.955Z" agent="Mozilla/5.0 (Macintosh; Intel Mac OS X 10_15_7) AppleWebKit/605.1.15 (KHTML, like Gecko) Version/16.3 Safari/605.1.15" version="21.2.9" etag="2FFiki0bpUfjF9QuMAT8" type="github">
  <diagram name="Page-1" id="kwmEr62bnMqJt9Z00F9W">
    <mxGraphModel>
      <root>
        <mxCell id="0" />
        <mxCell id="1" parent="0" />
      </root>
    </mxGraphModel>
  </diagram>
</mxfile>
